<?xml version="1.0" standalone="no"?>
<!DOCTYPE svg PUBLIC "-//W3C//DTD SVG 20010904//EN"
 "http://www.w3.org/TR/2001/REC-SVG-20010904/DTD/svg10.dtd">
<svg version="1.0" xmlns="http://www.w3.org/2000/svg"
 width="512.000000pt" height="512.000000pt" viewBox="0 0 512.000000 512.000000"
 preserveAspectRatio="xMidYMid meet">

<g transform="translate(0.000000,512.000000) scale(0.100000,-0.100000)"
fill="#000000" stroke="none">
<path d="M1183 4425 c-78 -21 -130 -51 -183 -105 -89 -88 -120 -182 -120 -360
l0 -115 73 -34 c39 -19 75 -36 79 -39 4 -2 8 75 10 171 3 174 3 174 33 223 38
60 97 101 166 114 71 14 3207 14 3278 0 69 -13 128 -54 166 -114 l30 -49 3
-1079 2 -1079 -21 -49 c-12 -28 -39 -65 -60 -84 -73 -66 -68 -66 -808 -66
l-665 0 129 -75 129 -75 580 2 581 3 57 27 c109 51 193 151 223 264 23 88 23
2140 0 2229 -32 124 -124 229 -242 276 l-58 24 -1665 2 c-1412 2 -1673 0
-1717 -12z"/>
<path d="M1257 4029 c-24 -14 -39 -54 -31 -85 4 -17 264 -247 805 -715 439
-379 810 -694 824 -701 19 -8 31 -8 50 0 39 18 1603 1389 1610 1413 16 50 -44
110 -95 94 -11 -4 -361 -304 -777 -666 -437 -382 -761 -658 -769 -655 -7 3
-343 290 -746 638 -403 348 -748 645 -766 661 -35 28 -74 34 -105 16z"/>
<path d="M1799 2565 c-239 -207 -435 -379 -437 -384 -1 -4 18 -34 43 -65 46
-56 47 -56 69 -39 41 33 876 755 876 758 0 2 -26 26 -59 54 l-58 50 -434 -374z"/>
<path d="M3457 2880 c-52 -49 -52 -49 -32 -68 11 -11 237 -209 503 -441 436
-381 485 -421 517 -421 43 0 75 32 75 75 0 23 -10 41 -42 72 -98 93 -949 833
-959 833 -6 0 -34 -22 -62 -50z"/>
<path d="M1756 1751 c5 -4 49 -40 97 -80 l88 -71 336 0 336 0 56 58 c31 32 70
68 86 80 l30 21 -519 1 c-293 0 -516 -4 -510 -9z"/>
</g>
</svg>
